<svg width="14" height="18" viewBox="0 0 14 18" fill="none" xmlns="http://www.w3.org/2000/svg">
<path d="M13.5106 6.80368C13.5113 5.7338 13.2242 4.68111 12.6762 3.74338C12.1281 2.80565 11.3367 2.01331 10.3756 1.43994C9.41442 0.866578 8.31468 0.530789 7.1785 0.463765C6.04231 0.396741 4.90653 0.600656 3.87665 1.05657C2.84676 1.51248 1.95618 2.20561 1.28762 3.07156C0.619062 3.93752 0.194209 4.94822 0.0525245 6.00978C-0.0891601 7.07135 0.0569194 8.14935 0.477195 9.14366C0.89747 10.138 1.57831 11.0163 2.45648 11.6972V17.1923C2.4564 17.2908 2.48311 17.3876 2.53407 17.4736C2.58503 17.5596 2.65855 17.6319 2.74763 17.6836C2.83671 17.7354 2.9384 17.7649 3.04303 17.7693C3.14766 17.7737 3.25175 17.7529 3.34541 17.7089L6.7553 16.1102L10.166 17.7125C10.2515 17.7509 10.3452 17.7704 10.44 17.7695C10.6029 17.7695 10.7591 17.7087 10.8743 17.6004C10.9894 17.4922 11.0541 17.3454 11.0541 17.1923V11.6972C11.8225 11.1024 12.4412 10.3552 12.866 9.50917C13.2907 8.66311 13.5108 7.73917 13.5106 6.80368ZM1.22824 6.80368C1.22824 5.77634 1.55239 4.77207 2.15972 3.91787C2.76704 3.06367 3.63025 2.3979 4.64019 2.00475C5.65013 1.61161 6.76144 1.50874 7.83358 1.70917C8.90573 1.90959 9.89056 2.4043 10.6635 3.13074C11.4365 3.85718 11.9629 4.78272 12.1762 5.79032C12.3894 6.79792 12.28 7.84233 11.8616 8.79147C11.4433 9.74061 10.7349 10.5519 9.82598 11.1226C8.91706 11.6934 7.84845 11.998 6.7553 11.998C5.28993 11.9965 3.88505 11.4487 2.84887 10.4749C1.8127 9.50115 1.22986 8.18084 1.22824 6.80368ZM9.8259 16.2588L7.02936 14.9451C6.94404 14.9049 6.84994 14.8841 6.75454 14.8841C6.65913 14.8841 6.56504 14.9049 6.47972 14.9451L3.68471 16.2588V12.4576C4.63534 12.9142 5.6877 13.1523 6.7553 13.1523C7.82291 13.1523 8.87527 12.9142 9.8259 12.4576V16.2588ZM6.7553 10.8437C7.60553 10.8437 8.43667 10.6068 9.14361 10.1628C9.85054 9.71892 10.4015 9.08796 10.7269 8.34974C11.0523 7.61152 11.1374 6.7992 10.9715 6.01551C10.8057 5.23182 10.3962 4.51196 9.79504 3.94695C9.19383 3.38194 8.42786 2.99717 7.59396 2.84128C6.76007 2.6854 5.89572 2.7654 5.11021 3.07118C4.3247 3.37696 3.65332 3.89478 3.18096 4.55916C2.7086 5.22354 2.45648 6.00464 2.45648 6.80368C2.45769 7.87482 2.911 8.90175 3.71692 9.65915C4.52284 10.4166 5.61556 10.8426 6.7553 10.8437ZM6.7553 3.91795C7.36261 3.91795 7.95628 4.08719 8.46123 4.40428C8.96619 4.72137 9.35976 5.17206 9.59216 5.69936C9.82457 6.22666 9.88538 6.80689 9.7669 7.36666C9.64842 7.92644 9.35597 8.44063 8.92654 8.84421C8.49711 9.24779 7.94998 9.52263 7.35435 9.63397C6.75871 9.74532 6.14132 9.68817 5.58024 9.46976C5.01916 9.25134 4.5396 8.88147 4.2022 8.40691C3.8648 7.93236 3.68471 7.37443 3.68471 6.80368C3.68471 6.03834 4.00822 5.30434 4.58407 4.76316C5.15992 4.22198 5.94093 3.91795 6.7553 3.91795Z" fill="#fff"/>
</svg>
