<svg width="73" height="74" viewBox="0 0 73 74" fill="none" xmlns="http://www.w3.org/2000/svg">
<g id="ArrowBendDownRight">
<path id="Vector" d="M44.9577 7.73172L58.6452 21.4192C59.0733 21.8473 59.3138 22.4278 59.3138 23.0332C59.3138 23.6386 59.0733 24.2191 58.6452 24.6472C58.2172 25.0752 57.6366 25.3157 57.0312 25.3157C56.4259 25.3157 55.8453 25.0752 55.4173 24.6472L45.625 14.8521V36.7207C45.6167 44.5835 42.4895 52.1218 36.9297 57.6817C31.3699 63.2415 23.8315 66.3686 15.9688 66.377C15.3637 66.377 14.7835 66.1366 14.3557 65.7088C13.9278 65.281 13.6875 64.7007 13.6875 64.0957C13.6875 63.4907 13.9278 62.9104 14.3557 62.4826C14.7835 62.0548 15.3637 61.8145 15.9688 61.8145C22.6217 61.8069 29 59.1607 33.7044 54.4563C38.4087 49.752 41.055 43.3737 41.0625 36.7207V14.8521L31.2702 24.6472C30.8422 25.0752 30.2616 25.3157 29.6562 25.3157C29.0509 25.3157 28.4703 25.0752 28.0423 24.6472C27.6142 24.2191 27.3737 23.6386 27.3737 23.0332C27.3737 22.4278 27.6142 21.8473 28.0423 21.4192L41.7298 7.73172C41.9416 7.51962 42.1932 7.35135 42.4702 7.23655C42.7471 7.12175 43.044 7.06266 43.3438 7.06266C43.6435 7.06266 43.9404 7.12175 44.2173 7.23655C44.4943 7.35135 44.7459 7.51962 44.9577 7.73172Z" fill="#B2B2B2"/>
</g>
</svg>
