<svg width="73" height="74" viewBox="0 0 73 74" fill="none" xmlns="http://www.w3.org/2000/svg">
<g id="ArrowBendDownRight">
<path id="Vector" d="M65.489 28.6673L51.8015 14.9798C51.3734 14.5517 50.7929 14.3112 50.1875 14.3112C49.5821 14.3112 49.0016 14.5517 48.5735 14.9798C48.1455 15.4078 47.905 15.9884 47.905 16.5938C47.905 17.1991 48.1455 17.7797 48.5735 18.2077L58.3686 28H36.5C28.6372 28.0083 21.0989 31.1355 15.539 36.6953C9.97921 42.2551 6.85205 49.7935 6.84375 57.6562C6.84375 58.2613 7.0841 58.8415 7.51191 59.2693C7.93973 59.6972 8.51997 59.9375 9.125 59.9375C9.73003 59.9375 10.3103 59.6972 10.7381 59.2693C11.1659 58.8415 11.4062 58.2613 11.4062 57.6562C11.4138 51.0033 14.06 44.625 18.7644 39.9206C23.4687 35.2163 29.847 32.57 36.5 32.5625H58.3686L48.5735 42.3548C48.1455 42.7828 47.905 43.3634 47.905 43.9688C47.905 44.5741 48.1455 45.1547 48.5735 45.5827C49.0016 46.0108 49.5821 46.2513 50.1875 46.2513C50.7929 46.2513 51.3734 46.0108 51.8015 45.5827L65.489 31.8952C65.7011 31.6834 65.8694 31.4318 65.9842 31.1548C66.099 30.8779 66.158 30.581 66.158 30.2812C66.158 29.9815 66.099 29.6846 65.9842 29.4077C65.8694 29.1307 65.7011 28.8791 65.489 28.6673Z" fill="#B2B2B2"/>
</g>
</svg>
