<svg width="73" height="74" viewBox="0 0 73 74" fill="none" xmlns="http://www.w3.org/2000/svg">
<g id="ArrowBendDownRight">
<path id="Vector" d="M65.489 45.4909L51.8015 59.1784C51.3734 59.6065 50.7929 59.847 50.1875 59.847C49.5821 59.847 49.0016 59.6065 48.5735 59.1784C48.1455 58.7504 47.905 58.1698 47.905 57.5645C47.905 56.9591 48.1455 56.3785 48.5735 55.9505L58.3686 46.1582H36.5C28.6372 46.1499 21.0989 43.0227 15.539 37.4629C9.97921 31.9031 6.85205 24.3647 6.84375 16.502C6.84375 15.8969 7.0841 15.3167 7.51191 14.8889C7.93973 14.461 8.51997 14.2207 9.125 14.2207C9.73003 14.2207 10.3103 14.461 10.7381 14.8889C11.1659 15.3167 11.4062 15.8969 11.4062 16.502C11.4138 23.1549 14.06 29.5332 18.7644 34.2376C23.4687 38.9419 29.847 41.5882 36.5 41.5957H58.3686L48.5735 31.8034C48.1455 31.3754 47.905 30.7948 47.905 30.1895C47.905 29.5841 48.1455 29.0035 48.5735 28.5755C49.0016 28.1474 49.5821 27.9069 50.1875 27.9069C50.7929 27.9069 51.3734 28.1474 51.8015 28.5755L65.489 42.263C65.7011 42.4748 65.8694 42.7264 65.9842 43.0034C66.099 43.2803 66.158 43.5772 66.158 43.877C66.158 44.1767 66.099 44.4736 65.9842 44.7505C65.8694 45.0275 65.7011 45.2791 65.489 45.4909Z" fill="#B2B2B2"/>
</g>
</svg>
