<svg width="33" height="32" viewBox="0 0 33 32" fill="none" xmlns="http://www.w3.org/2000/svg">
<path d="M27.6699 7H22.6699V6C22.6699 5.20435 22.3539 4.44129 21.7912 3.87868C21.2286 3.31607 20.4656 3 19.6699 3H13.6699C12.8743 3 12.1112 3.31607 11.5486 3.87868C10.986 4.44129 10.6699 5.20435 10.6699 6V7H5.66992C5.13949 7 4.63078 7.21071 4.25571 7.58579C3.88064 7.96086 3.66992 8.46957 3.66992 9V25C3.66992 25.5304 3.88064 26.0391 4.25571 26.4142C4.63078 26.7893 5.13949 27 5.66992 27H27.6699C28.2004 27 28.7091 26.7893 29.0841 26.4142C29.4592 26.0391 29.6699 25.5304 29.6699 25V9C29.6699 8.46957 29.4592 7.96086 29.0841 7.58579C28.7091 7.21071 28.2004 7 27.6699 7ZM12.6699 6C12.6699 5.73478 12.7753 5.48043 12.9628 5.29289C13.1504 5.10536 13.4047 5 13.6699 5H19.6699C19.9351 5 20.1895 5.10536 20.377 5.29289C20.5646 5.48043 20.6699 5.73478 20.6699 6V7H12.6699V6ZM27.6699 9V14.2013C24.2946 16.0385 20.5128 17.0007 16.6699 17C12.8272 17.0007 9.04545 16.0389 5.66992 14.2025V9H27.6699ZM27.6699 25H5.66992V16.455C9.09483 18.1302 12.8573 19.0007 16.6699 19C20.4827 19.0001 24.245 18.1292 27.6699 16.4538V25ZM13.6699 14C13.6699 13.7348 13.7753 13.4804 13.9628 13.2929C14.1504 13.1054 14.4047 13 14.6699 13H18.6699C18.9351 13 19.1895 13.1054 19.377 13.2929C19.5646 13.4804 19.6699 13.7348 19.6699 14C19.6699 14.2652 19.5646 14.5196 19.377 14.7071C19.1895 14.8946 18.9351 15 18.6699 15H14.6699C14.4047 15 14.1504 14.8946 13.9628 14.7071C13.7753 14.5196 13.6699 14.2652 13.6699 14Z" fill="#fff"/>
</svg>
