<svg width="32" height="33" viewBox="0 0 32 33" fill="none" xmlns="http://www.w3.org/2000/svg">
<path d="M21.0618 25.2247L21.0618 25.2246L12.1217 16.2857L21.0618 7.34679L21.0618 7.34677C21.3432 7.06536 21.5013 6.68369 21.5013 6.28571C21.5013 5.88774 21.3432 5.50607 21.0618 5.22466C20.7804 4.94325 20.3988 4.78516 20.0008 4.78516C19.6028 4.78516 19.2211 4.94325 18.9397 5.22466L8.93993 15.2245C8.93987 15.2245 8.93979 15.2246 8.93973 15.2247C8.80034 15.3639 8.6898 15.5293 8.61434 15.7113C8.53885 15.8934 8.5 16.0886 8.5 16.2857C8.5 16.4828 8.53885 16.678 8.61434 16.8601C8.68979 17.0421 8.80036 17.2075 8.93973 17.3468C8.9398 17.3468 8.93986 17.3469 8.93993 17.347L18.9397 27.3468C19.0791 27.4861 19.2445 27.5966 19.4265 27.672C19.6086 27.7475 19.8037 27.7863 20.0008 27.7863C20.1978 27.7863 20.393 27.7475 20.575 27.672C20.7571 27.5966 20.9225 27.4861 21.0618 27.3468C21.2012 27.2074 21.3117 27.042 21.3871 26.86C21.4625 26.6779 21.5013 26.4828 21.5013 26.2857C21.5013 26.0887 21.4625 25.8935 21.3871 25.7115C21.3117 25.5294 21.2012 25.364 21.0618 25.2247Z" fill="black" stroke="white"/>
</svg>
