<svg width="33" height="32" viewBox="0 0 33 32" fill="none" xmlns="http://www.w3.org/2000/svg">
<path d="M31.6699 16C31.671 14.8516 31.3895 13.7206 30.8502 12.7066C30.311 11.6927 29.5306 10.827 28.5778 10.1859C27.625 9.54477 26.5291 9.14792 25.3867 9.03032C24.2444 8.91272 23.0906 9.07799 22.0272 9.51156C20.9638 9.94512 20.0233 10.6337 19.2888 11.5165C18.5543 12.3993 18.0483 13.4493 17.8154 14.5738C17.5825 15.6983 17.6298 16.8629 17.9532 17.9648C18.2766 19.0668 18.8662 20.0722 19.6699 20.8925V28C19.6698 28.1705 19.7133 28.3383 19.7963 28.4873C19.8793 28.6363 19.999 28.7616 20.144 28.8513C20.2891 28.941 20.4547 28.9921 20.625 28.9997C20.7954 29.0074 20.9649 28.9713 21.1174 28.895L24.6699 27.1175L28.2224 28.895C28.3749 28.9713 28.5444 29.0074 28.7148 28.9997C28.8852 28.9921 29.0508 28.941 29.1958 28.8513C29.3409 28.7616 29.4606 28.6363 29.5436 28.4873C29.6265 28.3383 29.67 28.1705 29.6699 28V20.8925C30.9525 19.5871 31.6708 17.83 31.6699 16ZM24.6699 11C25.6588 11 26.6255 11.2932 27.4478 11.8427C28.27 12.3921 28.9109 13.173 29.2893 14.0866C29.6678 15.0002 29.7668 16.0055 29.5738 16.9755C29.3809 17.9454 28.9047 18.8363 28.2055 19.5355C27.5062 20.2348 26.6153 20.711 25.6454 20.9039C24.6755 21.0969 23.6701 20.9978 22.7565 20.6194C21.8429 20.241 21.062 19.6001 20.5126 18.7779C19.9632 17.9556 19.6699 16.9889 19.6699 16C19.6699 14.6739 20.1967 13.4021 21.1344 12.4645C22.0721 11.5268 23.3438 11 24.6699 11ZM25.1174 25.105C24.9785 25.0355 24.8253 24.9993 24.6699 24.9993C24.5146 24.9993 24.3614 25.0355 24.2224 25.105L21.6699 26.3825V22.3237C22.6073 22.769 23.6321 23 24.6699 23C25.7077 23 26.7325 22.769 27.6699 22.3237V26.3825L25.1174 25.105ZM17.6699 24C17.6699 24.2652 17.5646 24.5196 17.377 24.7071C17.1895 24.8946 16.9351 25 16.6699 25H5.66992C5.13949 25 4.63078 24.7893 4.25571 24.4142C3.88064 24.0391 3.66992 23.5304 3.66992 23V7C3.66992 6.46957 3.88064 5.96086 4.25571 5.58579C4.63078 5.21071 5.13949 5 5.66992 5H27.6699C28.2004 5 28.7091 5.21071 29.0841 5.58579C29.4592 5.96086 29.6699 6.46957 29.6699 7C29.6699 7.26522 29.5646 7.51957 29.377 7.70711C29.1895 7.89464 28.9351 8 28.6699 8C28.4047 8 28.1504 7.89464 27.9628 7.70711C27.7753 7.51957 27.6699 7.26522 27.6699 7H5.66992V23H16.6699C16.9351 23 17.1895 23.1054 17.377 23.2929C17.5646 23.4804 17.6699 23.7348 17.6699 24ZM15.6699 17C15.6699 17.2652 15.5646 17.5196 15.377 17.7071C15.1895 17.8946 14.9351 18 14.6699 18H9.66992C9.40471 18 9.15035 17.8946 8.96282 17.7071C8.77528 17.5196 8.66992 17.2652 8.66992 17C8.66992 16.7348 8.77528 16.4804 8.96282 16.2929C9.15035 16.1054 9.40471 16 9.66992 16H14.6699C14.9351 16 15.1895 16.1054 15.377 16.2929C15.5646 16.4804 15.6699 16.7348 15.6699 17ZM15.6699 13C15.6699 13.2652 15.5646 13.5196 15.377 13.7071C15.1895 13.8946 14.9351 14 14.6699 14H9.66992C9.40471 14 9.15035 13.8946 8.96282 13.7071C8.77528 13.5196 8.66992 13.2652 8.66992 13C8.66992 12.7348 8.77528 12.4804 8.96282 12.2929C9.15035 12.1054 9.40471 12 9.66992 12H14.6699C14.9351 12 15.1895 12.1054 15.377 12.2929C15.5646 12.4804 15.6699 12.7348 15.6699 13Z" fill="#fff"/>
</svg>
