<svg width="1920" height="1165" viewBox="0 0 1920 1165" fill="none" xmlns="http://www.w3.org/2000/svg">
<g opacity="0.5">
<path d="M0 0.285156H1920V1164.32H0V0.285156Z" fill="url(#paint0_linear_353_7693)"/>
<path d="M0 0.285156H1920V1164.32H0V0.285156Z" fill="url(#paint1_radial_353_7693)"/>
<path d="M0 0.285156H1920V1164.32H0V0.285156Z" fill="url(#paint2_radial_353_7693)"/>
<path d="M0 0.285156H1920V1164.32H0V0.285156Z" fill="url(#paint3_radial_353_7693)"/>
<path d="M0 0.285156H1920V1164.32H0V0.285156Z" fill="url(#paint4_radial_353_7693)"/>
</g>
<mask id="path-2-outside-1_353_7693" maskUnits="userSpaceOnUse" x="95.4961" y="850.244" width="905" height="213" fill="black">
<rect fill="white" x="95.4961" y="850.244" width="905" height="213"/>
<path d="M132.996 925.244C125.663 925.244 119.363 923.777 114.096 920.844C108.896 917.844 104.896 913.644 102.096 908.244C99.2961 902.777 97.8961 896.344 97.8961 888.944C97.8961 881.544 99.2961 875.144 102.096 869.744C104.896 864.344 108.896 860.177 114.096 857.244C119.363 854.244 125.663 852.744 132.996 852.744C137.729 852.744 142.196 853.477 146.396 854.944C150.663 856.411 154.163 858.511 156.896 861.244L152.696 871.444C149.696 868.911 146.629 867.077 143.496 865.944C140.363 864.744 136.996 864.144 133.396 864.144C126.263 864.144 120.829 866.311 117.096 870.644C113.363 874.911 111.496 881.011 111.496 888.944C111.496 896.877 113.363 903.011 117.096 907.344C120.829 911.677 126.263 913.844 133.396 913.844C136.996 913.844 140.363 913.277 143.496 912.144C146.629 910.944 149.696 909.077 152.696 906.544L156.896 916.744C154.163 919.411 150.663 921.511 146.396 923.044C142.196 924.511 137.729 925.244 132.996 925.244ZM168.067 924.244V853.744H214.967V863.944H180.367V883.344H212.767V893.544H180.367V914.044H214.967V924.244H168.067ZM227.735 924.244V853.744H240.535V913.344H274.335V924.244H227.735ZM283.888 924.244V853.744H330.788V863.944H296.188V883.344H328.588V893.544H296.188V914.044H330.788V924.244H283.888ZM343.555 924.244V853.744H374.355C381.755 853.744 387.489 855.377 391.555 858.644C395.622 861.844 397.655 866.311 397.655 872.044C397.655 875.844 396.689 879.111 394.755 881.844C392.822 884.577 390.155 886.577 386.755 887.844C390.755 888.977 393.855 890.977 396.055 893.844C398.322 896.644 399.455 900.211 399.455 904.544C399.455 910.811 397.322 915.677 393.055 919.144C388.855 922.544 382.989 924.244 375.455 924.244H343.555ZM355.855 883.644H372.155C380.889 883.644 385.255 880.277 385.255 873.544C385.255 866.811 380.889 863.444 372.155 863.444H355.855V883.644ZM355.855 914.544H373.855C382.655 914.544 387.055 911.011 387.055 903.944C387.055 896.877 382.655 893.344 373.855 893.344H355.855V914.544ZM412.403 924.244V853.744H443.003C450.736 853.744 456.703 855.611 460.903 859.344C465.103 863.011 467.203 868.177 467.203 874.844C467.203 880.111 465.836 884.477 463.103 887.944C460.37 891.344 456.436 893.644 451.303 894.844C454.703 895.911 457.503 898.477 459.703 902.544L471.503 924.244H457.403L445.203 901.744C444.003 899.544 442.57 898.044 440.903 897.244C439.303 896.444 437.236 896.044 434.703 896.044H425.203V924.244H412.403ZM425.203 886.544H440.803C450.136 886.544 454.803 882.744 454.803 875.144C454.803 867.611 450.136 863.844 440.803 863.844H425.203V886.544ZM472.088 924.244L503.988 853.744H514.488L546.388 924.244H533.388L526.388 907.944H491.988L485.088 924.244H472.088ZM509.088 867.644L496.388 897.744H521.988L509.288 867.644H509.088ZM563.29 924.244V864.444H539.09V853.744H600.29V864.444H576.09V924.244H563.29ZM608.399 924.244V853.744H621.199V924.244H608.399ZM636.524 924.244V853.744H646.124L684.024 902.944V853.744H695.924V924.244H686.424L648.424 874.844V924.244H636.524ZM745.229 925.244C737.429 925.244 730.829 923.777 725.429 920.844C720.096 917.911 716.029 913.744 713.229 908.344C710.429 902.944 709.029 896.544 709.029 889.144C709.029 881.677 710.462 875.244 713.329 869.844C716.196 864.377 720.329 860.177 725.729 857.244C731.129 854.244 737.596 852.744 745.129 852.744C750.062 852.744 754.696 853.477 759.029 854.944C763.362 856.344 766.962 858.311 769.829 860.844L765.529 870.844C762.396 868.377 759.196 866.611 755.929 865.544C752.662 864.477 749.062 863.944 745.129 863.944C737.662 863.944 731.996 866.111 728.129 870.444C724.329 874.777 722.429 881.011 722.429 889.144C722.429 897.344 724.396 903.577 728.329 907.844C732.262 912.111 738.096 914.244 745.829 914.244C748.029 914.244 750.262 914.077 752.529 913.744C754.862 913.344 757.162 912.777 759.429 912.044V895.644H743.229V886.144H770.129V920.044C766.862 921.644 762.996 922.911 758.529 923.844C754.062 924.777 749.629 925.244 745.229 925.244ZM828.915 924.244V864.444H804.715V853.744H865.915V864.444H841.715V924.244H828.915ZM874.024 924.244V853.744H886.824V883.144H923.124V853.744H935.924V924.244H923.124V893.844H886.824V924.244H874.024ZM951.368 924.244V853.744H998.268V863.944H963.668V883.344H996.068V893.544H963.668V914.044H998.268V924.244H951.368ZM100.196 1060.24V989.744H112.996V1049.34H146.796V1060.24H100.196ZM156.348 1060.24V989.744H203.248V999.944H168.648V1019.34H201.048V1029.54H168.648V1050.04H203.248V1060.24H156.348ZM249.819 1061.24C242.019 1061.24 235.419 1059.78 230.019 1056.84C224.685 1053.91 220.619 1049.74 217.819 1044.34C215.019 1038.94 213.619 1032.54 213.619 1025.14C213.619 1017.68 215.052 1011.24 217.919 1005.84C220.785 1000.38 224.919 996.177 230.319 993.244C235.719 990.244 242.185 988.744 249.719 988.744C254.652 988.744 259.285 989.477 263.619 990.944C267.952 992.344 271.552 994.311 274.419 996.844L270.119 1006.84C266.985 1004.38 263.785 1002.61 260.519 1001.54C257.252 1000.48 253.652 999.944 249.719 999.944C242.252 999.944 236.585 1002.11 232.719 1006.44C228.919 1010.78 227.019 1017.01 227.019 1025.14C227.019 1033.34 228.985 1039.58 232.919 1043.84C236.852 1048.11 242.685 1050.24 250.419 1050.24C252.619 1050.24 254.852 1050.08 257.119 1049.74C259.452 1049.34 261.752 1048.78 264.019 1048.04V1031.64H247.819V1022.14H274.719V1056.04C271.452 1057.64 267.585 1058.91 263.119 1059.84C258.652 1060.78 254.219 1061.24 249.819 1061.24ZM289.552 1060.24V989.744H336.452V999.944H301.852V1019.34H334.252V1029.54H301.852V1050.04H336.452V1060.24H289.552ZM349.22 1060.24V989.744H358.82L396.72 1038.94V989.744H408.62V1060.24H399.12L361.12 1010.84V1060.24H349.22ZM424.024 1060.24V989.744H450.224C462.024 989.744 471.124 992.777 477.524 998.844C483.991 1004.91 487.224 1013.61 487.224 1024.94C487.224 1036.21 483.991 1044.91 477.524 1051.04C471.124 1057.18 462.024 1060.24 450.224 1060.24H424.024ZM436.824 1049.64H449.424C465.691 1049.64 473.824 1041.41 473.824 1024.94C473.824 1008.54 465.691 1000.34 449.424 1000.34H436.824V1049.64ZM524.496 1061.24C518.963 1061.24 513.829 1060.54 509.096 1059.14C504.363 1057.68 500.363 1055.71 497.096 1053.24L500.996 1043.14C504.263 1045.48 507.829 1047.28 511.696 1048.54C515.629 1049.81 519.896 1050.44 524.496 1050.44C529.763 1050.44 533.596 1049.58 535.996 1047.84C538.396 1046.04 539.596 1043.74 539.596 1040.94C539.596 1038.61 538.729 1036.78 536.996 1035.44C535.329 1034.11 532.429 1033.01 528.296 1032.14L517.296 1029.84C504.763 1027.18 498.496 1020.74 498.496 1010.54C498.496 1006.14 499.663 1002.31 501.996 999.044C504.329 995.777 507.563 993.244 511.696 991.444C515.829 989.644 520.596 988.744 525.996 988.744C530.796 988.744 535.296 989.477 539.496 990.944C543.696 992.344 547.196 994.344 549.996 996.944L546.096 1006.54C540.563 1001.88 533.829 999.544 525.896 999.544C521.296 999.544 517.696 1000.51 515.096 1002.44C512.496 1004.38 511.196 1006.91 511.196 1010.04C511.196 1012.44 511.996 1014.38 513.596 1015.84C515.196 1017.24 517.929 1018.34 521.796 1019.14L532.696 1021.44C539.296 1022.84 544.196 1025.04 547.396 1028.04C550.663 1031.04 552.296 1035.04 552.296 1040.04C552.296 1044.24 551.163 1047.94 548.896 1051.14C546.629 1054.34 543.396 1056.84 539.196 1058.64C535.063 1060.38 530.163 1061.24 524.496 1061.24Z"/>
</mask>
<path d="M114.096 920.844L113.097 922.577L113.11 922.584L113.123 922.591L114.096 920.844ZM102.096 908.244L100.316 909.156L100.321 909.165L102.096 908.244ZM102.096 869.744L103.872 870.665L102.096 869.744ZM114.096 857.244L115.079 858.986L115.086 858.982L114.096 857.244ZM146.396 854.944L145.737 856.832L145.746 856.836L146.396 854.944ZM156.896 861.244L158.745 862.006L159.253 860.773L158.31 859.83L156.896 861.244ZM152.696 871.444L151.406 872.972L153.501 874.742L154.545 872.206L152.696 871.444ZM143.496 865.944L142.781 867.812L142.798 867.819L142.816 867.825L143.496 865.944ZM117.096 870.644L118.601 871.961L118.606 871.955L118.611 871.95L117.096 870.644ZM117.096 907.344L115.581 908.65L117.096 907.344ZM143.496 912.144L144.176 914.025L144.194 914.019L144.211 914.012L143.496 912.144ZM152.696 906.544L154.545 905.783L153.501 903.247L151.406 905.016L152.696 906.544ZM156.896 916.744L158.293 918.176L159.26 917.232L158.745 915.983L156.896 916.744ZM146.396 923.044L147.055 924.932L147.064 924.929L147.072 924.926L146.396 923.044ZM132.996 923.244C125.93 923.244 119.98 921.832 115.069 919.097L113.123 922.591C118.745 925.723 125.395 927.244 132.996 927.244V923.244ZM115.096 919.112C110.231 916.305 106.498 912.389 103.872 907.324L100.321 909.165C103.294 914.899 107.561 919.383 113.097 922.577L115.096 919.112ZM103.876 907.332C101.247 902.2 99.8961 896.091 99.8961 888.944H95.8961C95.8961 896.597 97.3448 903.355 100.316 909.156L103.876 907.332ZM99.8961 888.944C99.8961 881.796 101.248 875.725 103.872 870.665L100.321 868.824C97.3445 874.563 95.8961 881.292 95.8961 888.944H99.8961ZM103.872 870.665C106.496 865.603 110.224 861.725 115.079 858.986L113.113 855.502C107.568 858.63 103.296 863.085 100.321 868.824L103.872 870.665ZM115.086 858.982C119.994 856.186 125.937 854.744 132.996 854.744V850.744C125.388 850.744 118.732 852.302 113.106 855.506L115.086 858.982ZM132.996 854.744C137.519 854.744 141.762 855.444 145.737 856.832L147.055 853.056C142.63 851.511 137.939 850.744 132.996 850.744V854.744ZM145.746 856.836C149.773 858.22 152.997 860.173 155.482 862.658L158.31 859.83C155.329 856.848 151.553 854.602 147.046 853.053L145.746 856.836ZM155.047 860.483L150.847 870.683L154.545 872.206L158.745 862.006L155.047 860.483ZM153.986 869.916C150.837 867.257 147.568 865.29 144.176 864.063L142.816 867.825C145.691 868.865 148.555 870.565 151.406 872.972L153.986 869.916ZM144.211 864.076C140.834 862.783 137.223 862.144 133.396 862.144V866.144C136.77 866.144 139.892 866.706 142.781 867.812L144.211 864.076ZM133.396 862.144C125.837 862.144 119.785 864.459 115.581 869.339L118.611 871.95C121.874 868.163 126.689 866.144 133.396 866.144V862.144ZM115.591 869.327C111.431 874.081 109.496 880.719 109.496 888.944H113.496C113.496 881.303 115.294 875.741 118.601 871.961L115.591 869.327ZM109.496 888.944C109.496 897.172 111.432 903.834 115.581 908.65L118.611 906.039C115.293 902.187 113.496 896.583 113.496 888.944H109.496ZM115.581 908.65C119.785 913.53 125.837 915.844 133.396 915.844V911.844C126.689 911.844 121.874 909.825 118.611 906.039L115.581 908.65ZM133.396 915.844C137.209 915.844 140.808 915.243 144.176 914.025L142.816 910.263C139.918 911.312 136.783 911.844 133.396 911.844V915.844ZM144.211 914.012C147.586 912.719 150.844 910.726 153.986 908.072L151.406 905.016C148.549 907.429 145.673 909.169 142.781 910.276L144.211 914.012ZM150.847 907.306L155.047 917.506L158.745 915.983L154.545 905.783L150.847 907.306ZM155.499 915.313C153.006 917.745 149.767 919.708 145.72 921.162L147.072 924.926C151.559 923.314 155.32 921.076 158.293 918.176L155.499 915.313ZM145.737 921.156C141.762 922.544 137.519 923.244 132.996 923.244V927.244C137.939 927.244 142.63 926.478 147.055 924.932L145.737 921.156ZM168.067 924.244H166.067V926.244H168.067V924.244ZM168.067 853.744V851.744H166.067V853.744H168.067ZM214.967 853.744H216.967V851.744H214.967V853.744ZM214.967 863.944V865.944H216.967V863.944H214.967ZM180.367 863.944V861.944H178.367V863.944H180.367ZM180.367 883.344H178.367V885.344H180.367V883.344ZM212.767 883.344H214.767V881.344H212.767V883.344ZM212.767 893.544V895.544H214.767V893.544H212.767ZM180.367 893.544V891.544H178.367V893.544H180.367ZM180.367 914.044H178.367V916.044H180.367V914.044ZM214.967 914.044H216.967V912.044H214.967V914.044ZM214.967 924.244V926.244H216.967V924.244H214.967ZM170.067 924.244V853.744H166.067V924.244H170.067ZM168.067 855.744H214.967V851.744H168.067V855.744ZM212.967 853.744V863.944H216.967V853.744H212.967ZM214.967 861.944H180.367V865.944H214.967V861.944ZM178.367 863.944V883.344H182.367V863.944H178.367ZM180.367 885.344H212.767V881.344H180.367V885.344ZM210.767 883.344V893.544H214.767V883.344H210.767ZM212.767 891.544H180.367V895.544H212.767V891.544ZM178.367 893.544V914.044H182.367V893.544H178.367ZM180.367 916.044H214.967V912.044H180.367V916.044ZM212.967 914.044V924.244H216.967V914.044H212.967ZM214.967 922.244H168.067V926.244H214.967V922.244ZM227.735 924.244H225.735V926.244H227.735V924.244ZM227.735 853.744V851.744H225.735V853.744H227.735ZM240.535 853.744H242.535V851.744H240.535V853.744ZM240.535 913.344H238.535V915.344H240.535V913.344ZM274.335 913.344H276.335V911.344H274.335V913.344ZM274.335 924.244V926.244H276.335V924.244H274.335ZM229.735 924.244V853.744H225.735V924.244H229.735ZM227.735 855.744H240.535V851.744H227.735V855.744ZM238.535 853.744V913.344H242.535V853.744H238.535ZM240.535 915.344H274.335V911.344H240.535V915.344ZM272.335 913.344V924.244H276.335V913.344H272.335ZM274.335 922.244H227.735V926.244H274.335V922.244ZM283.887 924.244H281.887V926.244H283.887V924.244ZM283.887 853.744V851.744H281.887V853.744H283.887ZM330.788 853.744H332.788V851.744H330.788V853.744ZM330.788 863.944V865.944H332.788V863.944H330.788ZM296.188 863.944V861.944H294.188V863.944H296.188ZM296.188 883.344H294.188V885.344H296.188V883.344ZM328.588 883.344H330.588V881.344H328.588V883.344ZM328.588 893.544V895.544H330.588V893.544H328.588ZM296.188 893.544V891.544H294.188V893.544H296.188ZM296.188 914.044H294.188V916.044H296.188V914.044ZM330.788 914.044H332.788V912.044H330.788V914.044ZM330.788 924.244V926.244H332.788V924.244H330.788ZM285.887 924.244V853.744H281.887V924.244H285.887ZM283.887 855.744H330.788V851.744H283.887V855.744ZM328.788 853.744V863.944H332.788V853.744H328.788ZM330.788 861.944H296.188V865.944H330.788V861.944ZM294.188 863.944V883.344H298.188V863.944H294.188ZM296.188 885.344H328.588V881.344H296.188V885.344ZM326.588 883.344V893.544H330.588V883.344H326.588ZM328.588 891.544H296.188V895.544H328.588V891.544ZM294.188 893.544V914.044H298.188V893.544H294.188ZM296.188 916.044H330.788V912.044H296.188V916.044ZM328.788 914.044V924.244H332.788V914.044H328.788ZM330.788 922.244H283.887V926.244H330.788V922.244ZM343.555 924.244H341.555V926.244H343.555V924.244ZM343.555 853.744V851.744H341.555V853.744H343.555ZM391.555 858.644L390.303 860.203L390.311 860.21L390.319 860.216L391.555 858.644ZM394.755 881.844L396.388 882.999L394.755 881.844ZM386.755 887.844L386.057 885.97L380.332 888.103L386.21 889.768L386.755 887.844ZM396.055 893.844L394.469 895.062L394.485 895.082L394.501 895.103L396.055 893.844ZM393.055 919.144L394.314 920.699L394.317 920.696L393.055 919.144ZM355.855 883.644H353.855V885.644H355.855V883.644ZM355.855 863.444V861.444H353.855V863.444H355.855ZM355.855 914.544H353.855V916.544H355.855V914.544ZM355.855 893.344V891.344H353.855V893.344H355.855ZM345.555 924.244V853.744H341.555V924.244H345.555ZM343.555 855.744H374.355V851.744H343.555V855.744ZM374.355 855.744C381.487 855.744 386.714 857.32 390.303 860.203L392.808 857.085C388.264 853.435 382.024 851.744 374.355 851.744V855.744ZM390.319 860.216C393.847 862.992 395.655 866.848 395.655 872.044H399.655C399.655 865.773 397.397 860.696 392.792 857.072L390.319 860.216ZM395.655 872.044C395.655 875.488 394.786 878.338 393.123 880.689L396.388 882.999C398.592 879.884 399.655 876.2 399.655 872.044H395.655ZM393.123 880.689C391.441 883.067 389.114 884.831 386.057 885.97L387.454 889.718C391.197 888.324 394.203 886.088 396.388 882.999L393.123 880.689ZM386.21 889.768C389.861 890.803 392.569 892.586 394.469 895.062L397.642 892.627C395.142 889.368 391.65 887.152 387.301 885.92L386.21 889.768ZM394.501 895.103C396.424 897.478 397.455 900.572 397.455 904.544H401.455C401.455 899.849 400.22 895.81 397.61 892.586L394.501 895.103ZM397.455 904.544C397.455 910.303 395.525 914.561 391.794 917.592L394.317 920.696C399.12 916.794 401.455 911.318 401.455 904.544H397.455ZM391.797 917.59C388.071 920.606 382.709 922.244 375.455 922.244V926.244C383.269 926.244 389.64 924.482 394.314 920.699L391.797 917.59ZM375.455 922.244H343.555V926.244H375.455V922.244ZM355.855 885.644H372.155V881.644H355.855V885.644ZM372.155 885.644C376.723 885.644 380.516 884.773 383.202 882.703C385.985 880.557 387.255 877.378 387.255 873.544H383.255C383.255 876.443 382.342 878.315 380.759 879.535C379.078 880.832 376.321 881.644 372.155 881.644V885.644ZM387.255 873.544C387.255 869.71 385.985 866.532 383.202 864.385C380.516 862.315 376.723 861.444 372.155 861.444V865.444C376.321 865.444 379.078 866.257 380.759 867.553C382.342 868.773 383.255 870.645 383.255 873.544H387.255ZM372.155 861.444H355.855V865.444H372.155V861.444ZM353.855 863.444V883.644H357.855V863.444H353.855ZM355.855 916.544H373.855V912.544H355.855V916.544ZM373.855 916.544C378.47 916.544 382.302 915.626 385.008 913.454C387.797 911.214 389.055 907.916 389.055 903.944H385.055C385.055 907.039 384.114 909.041 382.503 910.335C380.809 911.695 378.04 912.544 373.855 912.544V916.544ZM389.055 903.944C389.055 899.972 387.797 896.675 385.008 894.435C382.302 892.262 378.47 891.344 373.855 891.344V895.344C378.04 895.344 380.809 896.193 382.503 897.554C384.114 898.847 385.055 900.85 385.055 903.944H389.055ZM373.855 891.344H355.855V895.344H373.855V891.344ZM353.855 893.344V914.544H357.855V893.344H353.855ZM412.403 924.244H410.403V926.244H412.403V924.244ZM412.403 853.744V851.744H410.403V853.744H412.403ZM460.903 859.344L459.574 860.839L459.581 860.845L459.588 860.851L460.903 859.344ZM463.103 887.944L464.662 889.197L464.668 889.19L464.674 889.182L463.103 887.944ZM451.303 894.844L450.848 892.897L443.723 894.562L450.704 896.752L451.303 894.844ZM459.703 902.544L457.944 903.496L457.946 903.5L459.703 902.544ZM471.503 924.244V926.244H474.867L473.26 923.289L471.503 924.244ZM457.403 924.244L455.645 925.197L456.212 926.244H457.403V924.244ZM445.203 901.744L446.961 900.791L446.959 900.786L445.203 901.744ZM440.903 897.244L440.009 899.033L440.023 899.04L440.038 899.047L440.903 897.244ZM425.203 896.044V894.044H423.203V896.044H425.203ZM425.203 924.244V926.244H427.203V924.244H425.203ZM425.203 886.544H423.203V888.544H425.203V886.544ZM425.203 863.844V861.844H423.203V863.844H425.203ZM414.403 924.244V853.744H410.403V924.244H414.403ZM412.403 855.744H443.003V851.744H412.403V855.744ZM443.003 855.744C450.432 855.744 455.858 857.536 459.574 860.839L462.232 857.849C457.548 853.686 451.041 851.744 443.003 851.744V855.744ZM459.588 860.851C463.267 864.063 465.203 868.631 465.203 874.844H469.203C469.203 867.724 466.939 861.958 462.218 857.838L459.588 860.851ZM465.203 874.844C465.203 879.751 463.937 883.657 461.533 886.706L464.674 889.182C467.736 885.298 469.203 880.47 469.203 874.844H465.203ZM461.544 886.691C459.146 889.675 455.64 891.776 450.848 892.897L451.758 896.792C457.233 895.512 461.594 893.014 464.662 889.197L461.544 886.691ZM450.704 896.752C453.473 897.621 455.915 899.745 457.944 903.496L461.462 901.593C459.091 897.21 455.933 894.201 451.902 892.936L450.704 896.752ZM457.946 903.5L469.746 925.2L473.26 923.289L461.46 901.589L457.946 903.5ZM471.503 922.244H457.403V926.244H471.503V922.244ZM459.161 923.291L446.961 900.791L443.445 902.697L455.645 925.197L459.161 923.291ZM446.959 900.786C445.628 898.347 443.927 896.477 441.769 895.441L440.038 899.047C441.213 899.611 442.378 900.741 443.447 902.702L446.959 900.786ZM441.798 895.455C439.829 894.471 437.426 894.044 434.703 894.044V898.044C437.047 898.044 438.777 898.417 440.009 899.033L441.798 895.455ZM434.703 894.044H425.203V898.044H434.703V894.044ZM423.203 896.044V924.244H427.203V896.044H423.203ZM425.203 922.244H412.403V926.244H425.203V922.244ZM425.203 888.544H440.803V884.544H425.203V888.544ZM440.803 888.544C445.69 888.544 449.726 887.558 452.566 885.245C455.485 882.868 456.803 879.373 456.803 875.144H452.803C452.803 878.515 451.788 880.72 450.04 882.143C448.214 883.631 445.25 884.544 440.803 884.544V888.544ZM456.803 875.144C456.803 870.942 455.481 867.471 452.559 865.113C449.72 862.821 445.687 861.844 440.803 861.844V865.844C445.253 865.844 448.22 866.751 450.047 868.225C451.792 869.634 452.803 871.813 452.803 875.144H456.803ZM440.803 861.844H425.203V865.844H440.803V861.844ZM423.203 863.844V886.544H427.203V863.844H423.203ZM472.088 924.244L470.266 923.42L468.988 926.244H472.088V924.244ZM503.988 853.744V851.744H502.698L502.166 852.92L503.988 853.744ZM514.488 853.744L516.31 852.92L515.779 851.744H514.488V853.744ZM546.388 924.244V926.244H549.488L548.21 923.42L546.388 924.244ZM533.388 924.244L531.551 925.033L532.071 926.244H533.388V924.244ZM526.388 907.944L528.226 907.155L527.706 905.944H526.388V907.944ZM491.988 907.944V905.944H490.663L490.147 907.164L491.988 907.944ZM485.088 924.244V926.244H486.413L486.93 925.024L485.088 924.244ZM509.088 867.644V865.644H507.761L507.246 866.867L509.088 867.644ZM496.388 897.744L494.546 896.967L493.374 899.744H496.388V897.744ZM521.988 897.744V899.744H525.003L523.831 896.967L521.988 897.744ZM509.288 867.644L511.131 866.867L510.615 865.644H509.288V867.644ZM473.91 925.069L505.81 854.569L502.166 852.92L470.266 923.42L473.91 925.069ZM503.988 855.744H514.488V851.744H503.988V855.744ZM512.666 854.569L544.566 925.069L548.21 923.42L516.31 852.92L512.666 854.569ZM546.388 922.244H533.388V926.244H546.388V922.244ZM535.226 923.455L528.226 907.155L524.551 908.733L531.551 925.033L535.226 923.455ZM526.388 905.944H491.988V909.944H526.388V905.944ZM490.147 907.164L483.246 923.464L486.93 925.024L493.83 908.724L490.147 907.164ZM485.088 922.244H472.088V926.244H485.088V922.244ZM507.246 866.867L494.546 896.967L498.231 898.522L510.931 868.422L507.246 866.867ZM496.388 899.744H521.988V895.744H496.388V899.744ZM523.831 896.967L511.131 866.867L507.446 868.422L520.146 898.522L523.831 896.967ZM509.288 865.644H509.088V869.644H509.288V865.644ZM563.29 924.244H561.29V926.244H563.29V924.244ZM563.29 864.444H565.29V862.444H563.29V864.444ZM539.09 864.444H537.09V866.444H539.09V864.444ZM539.09 853.744V851.744H537.09V853.744H539.09ZM600.29 853.744H602.29V851.744H600.29V853.744ZM600.29 864.444V866.444H602.29V864.444H600.29ZM576.09 864.444V862.444H574.09V864.444H576.09ZM576.09 924.244V926.244H578.09V924.244H576.09ZM565.29 924.244V864.444H561.29V924.244H565.29ZM563.29 862.444H539.09V866.444H563.29V862.444ZM541.09 864.444V853.744H537.09V864.444H541.09ZM539.09 855.744H600.29V851.744H539.09V855.744ZM598.29 853.744V864.444H602.29V853.744H598.29ZM600.29 862.444H576.09V866.444H600.29V862.444ZM574.09 864.444V924.244H578.09V864.444H574.09ZM576.09 922.244H563.29V926.244H576.09V922.244ZM608.399 924.244H606.399V926.244H608.399V924.244ZM608.399 853.744V851.744H606.399V853.744H608.399ZM621.199 853.744H623.199V851.744H621.199V853.744ZM621.199 924.244V926.244H623.199V924.244H621.199ZM610.399 924.244V853.744H606.399V924.244H610.399ZM608.399 855.744H621.199V851.744H608.399V855.744ZM619.199 853.744V924.244H623.199V853.744H619.199ZM621.199 922.244H608.399V926.244H621.199V922.244ZM636.524 924.244H634.524V926.244H636.524V924.244ZM636.524 853.744V851.744H634.524V853.744H636.524ZM646.124 853.744L647.709 852.524L647.108 851.744H646.124V853.744ZM684.024 902.944L682.44 904.165L686.024 908.818V902.944H684.024ZM684.024 853.744V851.744H682.024V853.744H684.024ZM695.924 853.744H697.924V851.744H695.924V853.744ZM695.924 924.244V926.244H697.924V924.244H695.924ZM686.424 924.244L684.839 925.464L685.439 926.244H686.424V924.244ZM648.424 874.844L650.009 873.625L646.424 868.964V874.844H648.424ZM648.424 924.244V926.244H650.424V924.244H648.424ZM638.524 924.244V853.744H634.524V924.244H638.524ZM636.524 855.744H646.124V851.744H636.524V855.744ZM644.54 854.965L682.44 904.165L685.609 901.724L647.709 852.524L644.54 854.965ZM686.024 902.944V853.744H682.024V902.944H686.024ZM684.024 855.744H695.924V851.744H684.024V855.744ZM693.924 853.744V924.244H697.924V853.744H693.924ZM695.924 922.244H686.424V926.244H695.924V922.244ZM688.009 923.025L650.009 873.625L646.839 876.064L684.839 925.464L688.009 923.025ZM646.424 874.844V924.244H650.424V874.844H646.424ZM648.424 922.244H636.524V926.244H648.424V922.244ZM725.429 920.844L724.465 922.597L724.474 922.602L725.429 920.844ZM713.229 908.344L711.453 909.265L713.229 908.344ZM713.329 869.844L715.095 870.782L715.1 870.773L713.329 869.844ZM725.729 857.244L726.684 859.002L726.692 858.997L726.7 858.992L725.729 857.244ZM759.029 854.944L758.388 856.839L758.401 856.843L758.414 856.847L759.029 854.944ZM769.829 860.844L771.666 861.634L772.238 860.304L771.153 859.345L769.829 860.844ZM765.529 870.844L764.292 872.416L766.338 874.026L767.366 871.634L765.529 870.844ZM755.929 865.544L755.308 867.445L755.929 865.544ZM728.129 870.444L726.637 869.113L726.631 869.119L726.625 869.125L728.129 870.444ZM728.329 907.844L726.858 909.2L728.329 907.844ZM752.529 913.744L752.82 915.723L752.843 915.719L752.867 915.715L752.529 913.744ZM759.429 912.044L760.045 913.947L761.429 913.499V912.044H759.429ZM759.429 895.644H761.429V893.644H759.429V895.644ZM743.229 895.644H741.229V897.644H743.229V895.644ZM743.229 886.144V884.144H741.229V886.144H743.229ZM770.129 886.144H772.129V884.144H770.129V886.144ZM770.129 920.044L771.009 921.84L772.129 921.292V920.044H770.129ZM758.529 923.844L758.12 921.886L758.529 923.844ZM745.229 923.244C737.675 923.244 731.422 921.824 726.384 919.087L724.474 922.602C730.236 925.731 737.183 927.244 745.229 927.244V923.244ZM726.393 919.092C721.406 916.349 717.622 912.472 715.004 907.424L711.453 909.265C714.436 915.017 718.785 919.473 724.465 922.597L726.393 919.092ZM715.004 907.424C712.381 902.363 711.029 896.292 711.029 889.144H707.029C707.029 896.796 708.477 903.525 711.453 909.265L715.004 907.424ZM711.029 889.144C711.029 881.933 712.412 875.836 715.095 870.782L711.562 868.906C708.512 874.652 707.029 881.422 707.029 889.144H711.029ZM715.1 870.773C717.784 865.656 721.633 861.745 726.684 859.002L724.774 855.487C719.024 858.61 714.608 863.099 711.558 868.915L715.1 870.773ZM726.7 858.992C731.744 856.19 737.861 854.744 745.129 854.744V850.744C737.33 850.744 730.513 852.298 724.758 855.496L726.7 858.992ZM745.129 854.744C749.861 854.744 754.277 855.447 758.388 856.839L759.67 853.05C755.115 851.508 750.263 850.744 745.129 850.744V854.744ZM758.414 856.847C762.535 858.179 765.879 860.023 768.505 862.343L771.153 859.345C768.045 856.599 764.19 854.51 759.644 853.041L758.414 856.847ZM767.992 860.054L763.692 870.054L767.366 871.634L771.666 861.634L767.992 860.054ZM766.766 869.273C763.477 866.684 760.072 864.793 756.55 863.643L755.308 867.445C758.319 868.428 761.314 870.071 764.292 872.416L766.766 869.273ZM756.55 863.643C753.056 862.502 749.243 861.944 745.129 861.944V865.944C748.881 865.944 752.268 866.453 755.308 867.445L756.55 863.643ZM745.129 861.944C737.266 861.944 730.985 864.24 726.637 869.113L729.621 871.776C733.006 867.982 738.059 865.944 745.129 865.944V861.944ZM726.625 869.125C722.395 873.949 720.429 880.724 720.429 889.144H724.429C724.429 881.298 726.263 875.606 729.633 871.763L726.625 869.125ZM720.429 889.144C720.429 897.639 722.466 904.435 726.858 909.2L729.799 906.489C726.325 902.72 724.429 897.049 724.429 889.144H720.429ZM726.858 909.2C731.285 914.001 737.731 916.244 745.829 916.244V912.244C738.46 912.244 733.24 910.22 729.799 906.489L726.858 909.2ZM745.829 916.244C748.13 916.244 750.461 916.07 752.82 915.723L752.238 911.765C750.064 912.085 747.928 912.244 745.829 912.244V916.244ZM752.867 915.715C755.295 915.299 757.688 914.71 760.045 913.947L758.813 910.141C756.637 910.845 754.43 911.389 752.191 911.773L752.867 915.715ZM761.429 912.044V895.644H757.429V912.044H761.429ZM759.429 893.644H743.229V897.644H759.429V893.644ZM745.229 895.644V886.144H741.229V895.644H745.229ZM743.229 888.144H770.129V884.144H743.229V888.144ZM768.129 886.144V920.044H772.129V886.144H768.129ZM769.249 918.248C766.164 919.759 762.463 920.979 758.12 921.886L758.938 925.802C763.528 924.843 767.56 923.529 771.009 921.84L769.249 918.248ZM758.12 921.886C753.783 922.793 749.486 923.244 745.229 923.244V927.244C749.771 927.244 754.342 926.762 758.938 925.802L758.12 921.886ZM828.915 924.244H826.915V926.244H828.915V924.244ZM828.915 864.444H830.915V862.444H828.915V864.444ZM804.715 864.444H802.715V866.444H804.715V864.444ZM804.715 853.744V851.744H802.715V853.744H804.715ZM865.915 853.744H867.915V851.744H865.915V853.744ZM865.915 864.444V866.444H867.915V864.444H865.915ZM841.715 864.444V862.444H839.715V864.444H841.715ZM841.715 924.244V926.244H843.715V924.244H841.715ZM830.915 924.244V864.444H826.915V924.244H830.915ZM828.915 862.444H804.715V866.444H828.915V862.444ZM806.715 864.444V853.744H802.715V864.444H806.715ZM804.715 855.744H865.915V851.744H804.715V855.744ZM863.915 853.744V864.444H867.915V853.744H863.915ZM865.915 862.444H841.715V866.444H865.915V862.444ZM839.715 864.444V924.244H843.715V864.444H839.715ZM841.715 922.244H828.915V926.244H841.715V922.244ZM874.024 924.244H872.024V926.244H874.024V924.244ZM874.024 853.744V851.744H872.024V853.744H874.024ZM886.824 853.744H888.824V851.744H886.824V853.744ZM886.824 883.144H884.824V885.144H886.824V883.144ZM923.124 883.144V885.144H925.124V883.144H923.124ZM923.124 853.744V851.744H921.124V853.744H923.124ZM935.924 853.744H937.924V851.744H935.924V853.744ZM935.924 924.244V926.244H937.924V924.244H935.924ZM923.124 924.244H921.124V926.244H923.124V924.244ZM923.124 893.844H925.124V891.844H923.124V893.844ZM886.824 893.844V891.844H884.824V893.844H886.824ZM886.824 924.244V926.244H888.824V924.244H886.824ZM876.024 924.244V853.744H872.024V924.244H876.024ZM874.024 855.744H886.824V851.744H874.024V855.744ZM884.824 853.744V883.144H888.824V853.744H884.824ZM886.824 885.144H923.124V881.144H886.824V885.144ZM925.124 883.144V853.744H921.124V883.144H925.124ZM923.124 855.744H935.924V851.744H923.124V855.744ZM933.924 853.744V924.244H937.924V853.744H933.924ZM935.924 922.244H923.124V926.244H935.924V922.244ZM925.124 924.244V893.844H921.124V924.244H925.124ZM923.124 891.844H886.824V895.844H923.124V891.844ZM884.824 893.844V924.244H888.824V893.844H884.824ZM886.824 922.244H874.024V926.244H886.824V922.244ZM951.368 924.244H949.368V926.244H951.368V924.244ZM951.368 853.744V851.744H949.368V853.744H951.368ZM998.268 853.744H1000.27V851.744H998.268V853.744ZM998.268 863.944V865.944H1000.27V863.944H998.268ZM963.668 863.944V861.944H961.668V863.944H963.668ZM963.668 883.344H961.668V885.344H963.668V883.344ZM996.068 883.344H998.068V881.344H996.068V883.344ZM996.068 893.544V895.544H998.068V893.544H996.068ZM963.668 893.544V891.544H961.668V893.544H963.668ZM963.668 914.044H961.668V916.044H963.668V914.044ZM998.268 914.044H1000.27V912.044H998.268V914.044ZM998.268 924.244V926.244H1000.27V924.244H998.268ZM953.368 924.244V853.744H949.368V924.244H953.368ZM951.368 855.744H998.268V851.744H951.368V855.744ZM996.268 853.744V863.944H1000.27V853.744H996.268ZM998.268 861.944H963.668V865.944H998.268V861.944ZM961.668 863.944V883.344H965.668V863.944H961.668ZM963.668 885.344H996.068V881.344H963.668V885.344ZM994.068 883.344V893.544H998.068V883.344H994.068ZM996.068 891.544H963.668V895.544H996.068V891.544ZM961.668 893.544V914.044H965.668V893.544H961.668ZM963.668 916.044H998.268V912.044H963.668V916.044ZM996.268 914.044V924.244H1000.27V914.044H996.268ZM998.268 922.244H951.368V926.244H998.268V922.244ZM100.196 1060.24H98.1961V1062.24H100.196V1060.24ZM100.196 989.744V987.744H98.1961V989.744H100.196ZM112.996 989.744H114.996V987.744H112.996V989.744ZM112.996 1049.34H110.996V1051.34H112.996V1049.34ZM146.796 1049.34H148.796V1047.34H146.796V1049.34ZM146.796 1060.24V1062.24H148.796V1060.24H146.796ZM102.196 1060.24V989.744H98.1961V1060.24H102.196ZM100.196 991.744H112.996V987.744H100.196V991.744ZM110.996 989.744V1049.34H114.996V989.744H110.996ZM112.996 1051.34H146.796V1047.34H112.996V1051.34ZM144.796 1049.34V1060.24H148.796V1049.34H144.796ZM146.796 1058.24H100.196V1062.24H146.796V1058.24ZM156.348 1060.24H154.348V1062.24H156.348V1060.24ZM156.348 989.744V987.744H154.348V989.744H156.348ZM203.248 989.744H205.248V987.744H203.248V989.744ZM203.248 999.944V1001.94H205.248V999.944H203.248ZM168.648 999.944V997.944H166.648V999.944H168.648ZM168.648 1019.34H166.648V1021.34H168.648V1019.34ZM201.048 1019.34H203.048V1017.34H201.048V1019.34ZM201.048 1029.54V1031.54H203.048V1029.54H201.048ZM168.648 1029.54V1027.54H166.648V1029.54H168.648ZM168.648 1050.04H166.648V1052.04H168.648V1050.04ZM203.248 1050.04H205.248V1048.04H203.248V1050.04ZM203.248 1060.24V1062.24H205.248V1060.24H203.248ZM158.348 1060.24V989.744H154.348V1060.24H158.348ZM156.348 991.744H203.248V987.744H156.348V991.744ZM201.248 989.744V999.944H205.248V989.744H201.248ZM203.248 997.944H168.648V1001.94H203.248V997.944ZM166.648 999.944V1019.34H170.648V999.944H166.648ZM168.648 1021.34H201.048V1017.34H168.648V1021.34ZM199.048 1019.34V1029.54H203.048V1019.34H199.048ZM201.048 1027.54H168.648V1031.54H201.048V1027.54ZM166.648 1029.54V1050.04H170.648V1029.54H166.648ZM168.648 1052.04H203.248V1048.04H168.648V1052.04ZM201.248 1050.04V1060.24H205.248V1050.04H201.248ZM203.248 1058.24H156.348V1062.24H203.248V1058.24ZM230.019 1056.84L229.055 1058.6L229.064 1058.6L230.019 1056.84ZM217.819 1044.34L216.043 1045.26L217.819 1044.34ZM217.919 1005.84L219.685 1006.78L219.69 1006.77L217.919 1005.84ZM230.319 993.244L231.273 995.002L231.282 994.997L231.29 994.992L230.319 993.244ZM263.619 990.944L262.978 992.839L262.991 992.843L263.004 992.847L263.619 990.944ZM274.419 996.844L276.256 997.634L276.828 996.304L275.743 995.345L274.419 996.844ZM270.119 1006.84L268.882 1008.42L270.928 1010.03L271.956 1007.63L270.119 1006.84ZM260.519 1001.54L259.898 1003.45V1003.45L260.519 1001.54ZM232.719 1006.44L231.226 1005.11L231.221 1005.12L231.215 1005.13L232.719 1006.44ZM232.919 1043.84L231.448 1045.2L232.919 1043.84ZM257.119 1049.74L257.41 1051.72L257.433 1051.72L257.457 1051.72L257.119 1049.74ZM264.019 1048.04L264.634 1049.95L266.019 1049.5V1048.04H264.019ZM264.019 1031.64H266.019V1029.64H264.019V1031.64ZM247.819 1031.64H245.819V1033.64H247.819V1031.64ZM247.819 1022.14V1020.14H245.819V1022.14H247.819ZM274.719 1022.14H276.719V1020.14H274.719V1022.14ZM274.719 1056.04L275.598 1057.84L276.719 1057.29V1056.04H274.719ZM263.119 1059.84L262.71 1057.89L263.119 1059.84ZM249.819 1059.24C242.264 1059.24 236.012 1057.82 230.973 1055.09L229.064 1058.6C234.826 1061.73 241.773 1063.24 249.819 1063.24V1059.24ZM230.983 1055.09C225.996 1052.35 222.212 1048.47 219.594 1043.42L216.043 1045.26C219.026 1051.02 223.375 1055.47 229.055 1058.6L230.983 1055.09ZM219.594 1043.42C216.97 1038.36 215.619 1032.29 215.619 1025.14H211.619C211.619 1032.8 213.067 1039.53 216.043 1045.26L219.594 1043.42ZM215.619 1025.14C215.619 1017.93 217.002 1011.84 219.685 1006.78L216.152 1004.91C213.102 1010.65 211.619 1017.42 211.619 1025.14H215.619ZM219.69 1006.77C222.373 1001.66 226.223 997.745 231.273 995.002L229.364 991.487C223.614 994.61 219.197 999.099 216.148 1004.92L219.69 1006.77ZM231.29 994.992C236.334 992.19 242.451 990.744 249.719 990.744V986.744C241.92 986.744 235.103 988.298 229.347 991.496L231.29 994.992ZM249.719 990.744C254.451 990.744 258.866 991.447 262.978 992.839L264.26 989.05C259.704 987.508 254.853 986.744 249.719 986.744V990.744ZM263.004 992.847C267.124 994.179 270.469 996.023 273.094 998.343L275.743 995.345C272.635 992.599 268.78 990.51 264.234 989.041L263.004 992.847ZM272.581 996.054L268.281 1006.05L271.956 1007.63L276.256 997.634L272.581 996.054ZM271.356 1005.27C268.067 1002.68 264.662 1000.79 261.14 999.643L259.898 1003.45C262.909 1004.43 265.904 1006.07 268.882 1008.42L271.356 1005.27ZM261.14 999.643C257.646 998.502 253.833 997.944 249.719 997.944V1001.94C253.471 1001.94 256.858 1002.45 259.898 1003.45L261.14 999.643ZM249.719 997.944C241.856 997.944 235.575 1000.24 231.226 1005.11L234.211 1007.78C237.596 1003.98 242.649 1001.94 249.719 1001.94V997.944ZM231.215 1005.13C226.985 1009.95 225.019 1016.72 225.019 1025.14H229.019C229.019 1017.3 230.852 1011.61 234.222 1007.76L231.215 1005.13ZM225.019 1025.14C225.019 1033.64 227.056 1040.44 231.448 1045.2L234.389 1042.49C230.915 1038.72 229.019 1033.05 229.019 1025.14H225.019ZM231.448 1045.2C235.875 1050 242.321 1052.24 250.419 1052.24V1048.24C243.05 1048.24 237.83 1046.22 234.389 1042.49L231.448 1045.2ZM250.419 1052.24C252.72 1052.24 255.051 1052.07 257.41 1051.72L256.828 1047.77C254.653 1048.09 252.517 1048.24 250.419 1048.24V1052.24ZM257.457 1051.72C259.885 1051.3 262.277 1050.71 264.634 1049.95L263.403 1046.14C261.227 1046.85 259.019 1047.39 256.781 1047.77L257.457 1051.72ZM266.019 1048.04V1031.64H262.019V1048.04H266.019ZM264.019 1029.64H247.819V1033.64H264.019V1029.64ZM249.819 1031.64V1022.14H245.819V1031.64H249.819ZM247.819 1024.14H274.719V1020.14H247.819V1024.14ZM272.719 1022.14V1056.04H276.719V1022.14H272.719ZM273.839 1054.25C270.754 1055.76 267.053 1056.98 262.71 1057.89L263.528 1061.8C268.118 1060.84 272.15 1059.53 275.598 1057.84L273.839 1054.25ZM262.71 1057.89C258.373 1058.79 254.076 1059.24 249.819 1059.24V1063.24C254.361 1063.24 258.932 1062.76 263.528 1061.8L262.71 1057.89ZM289.552 1060.24H287.552V1062.24H289.552V1060.24ZM289.552 989.744V987.744H287.552V989.744H289.552ZM336.452 989.744H338.452V987.744H336.452V989.744ZM336.452 999.944V1001.94H338.452V999.944H336.452ZM301.852 999.944V997.944H299.852V999.944H301.852ZM301.852 1019.34H299.852V1021.34H301.852V1019.34ZM334.252 1019.34H336.252V1017.34H334.252V1019.34ZM334.252 1029.54V1031.54H336.252V1029.54H334.252ZM301.852 1029.54V1027.54H299.852V1029.54H301.852ZM301.852 1050.04H299.852V1052.04H301.852V1050.04ZM336.452 1050.04H338.452V1048.04H336.452V1050.04ZM336.452 1060.24V1062.24H338.452V1060.24H336.452ZM291.552 1060.24V989.744H287.552V1060.24H291.552ZM289.552 991.744H336.452V987.744H289.552V991.744ZM334.452 989.744V999.944H338.452V989.744H334.452ZM336.452 997.944H301.852V1001.94H336.452V997.944ZM299.852 999.944V1019.34H303.852V999.944H299.852ZM301.852 1021.34H334.252V1017.34H301.852V1021.34ZM332.252 1019.34V1029.54H336.252V1019.34H332.252ZM334.252 1027.54H301.852V1031.54H334.252V1027.54ZM299.852 1029.54V1050.04H303.852V1029.54H299.852ZM301.852 1052.04H336.452V1048.04H301.852V1052.04ZM334.452 1050.04V1060.24H338.452V1050.04H334.452ZM336.452 1058.24H289.552V1062.24H336.452V1058.24ZM349.22 1060.24H347.22V1062.24H349.22V1060.24ZM349.22 989.744V987.744H347.22V989.744H349.22ZM358.82 989.744L360.404 988.524L359.803 987.744H358.82V989.744ZM396.72 1038.94L395.135 1040.16L398.72 1044.82V1038.94H396.72ZM396.72 989.744V987.744H394.72V989.744H396.72ZM408.62 989.744H410.62V987.744H408.62V989.744ZM408.62 1060.24V1062.24H410.62V1060.24H408.62ZM399.12 1060.24L397.534 1061.46L398.135 1062.24H399.12V1060.24ZM361.12 1010.84L362.705 1009.62L359.12 1004.96V1010.84H361.12ZM361.12 1060.24V1062.24H363.12V1060.24H361.12ZM351.22 1060.24V989.744H347.22V1060.24H351.22ZM349.22 991.744H358.82V987.744H349.22V991.744ZM357.235 990.965L395.135 1040.16L398.304 1037.72L360.404 988.524L357.235 990.965ZM398.72 1038.94V989.744H394.72V1038.94H398.72ZM396.72 991.744H408.62V987.744H396.72V991.744ZM406.62 989.744V1060.24H410.62V989.744H406.62ZM408.62 1058.24H399.12V1062.24H408.62V1058.24ZM400.705 1059.02L362.705 1009.62L359.534 1012.06L397.534 1061.46L400.705 1059.02ZM359.12 1010.84V1060.24H363.12V1010.84H359.12ZM361.12 1058.24H349.22V1062.24H361.12V1058.24ZM424.024 1060.24H422.024V1062.24H424.024V1060.24ZM424.024 989.744V987.744H422.024V989.744H424.024ZM477.524 998.844L476.148 1000.3L476.156 1000.3L477.524 998.844ZM477.524 1051.04L476.148 1049.59L476.14 1049.6L477.524 1051.04ZM436.824 1049.64H434.824V1051.64H436.824V1049.64ZM436.824 1000.34V998.344H434.824V1000.34H436.824ZM426.024 1060.24V989.744H422.024V1060.24H426.024ZM424.024 991.744H450.224V987.744H424.024V991.744ZM450.224 991.744C461.689 991.744 470.231 994.687 476.148 1000.3L478.9 997.393C472.017 990.868 462.359 987.744 450.224 987.744V991.744ZM476.156 1000.3C482.114 1005.89 485.224 1014 485.224 1024.94H489.224C489.224 1013.22 485.867 1003.93 478.893 997.386L476.156 1000.3ZM485.224 1024.94C485.224 1035.82 482.117 1043.93 476.148 1049.59L478.901 1052.5C485.865 1045.89 489.224 1036.61 489.224 1024.94H485.224ZM476.14 1049.6C470.223 1055.27 461.684 1058.24 450.224 1058.24V1062.24C462.365 1062.24 472.026 1059.08 478.908 1052.49L476.14 1049.6ZM450.224 1058.24H424.024V1062.24H450.224V1058.24ZM436.824 1051.64H449.424V1047.64H436.824V1051.64ZM449.424 1051.64C457.872 1051.64 464.574 1049.5 469.147 1044.87C473.716 1040.25 475.824 1033.48 475.824 1024.94H471.824C471.824 1032.88 469.866 1038.46 466.301 1042.06C462.741 1045.67 457.243 1047.64 449.424 1047.64V1051.64ZM475.824 1024.94C475.824 1016.44 473.715 1009.69 469.144 1005.09C464.571 1000.47 457.87 998.344 449.424 998.344V1002.34C457.245 1002.34 462.744 1004.31 466.304 1007.9C469.867 1011.49 471.824 1017.05 471.824 1024.94H475.824ZM449.424 998.344H436.824V1002.34H449.424V998.344ZM434.824 1000.34V1049.64H438.824V1000.34H434.824ZM509.096 1059.14L508.504 1061.05L508.516 1061.06L508.529 1061.06L509.096 1059.14ZM497.096 1053.24L495.23 1052.52L494.687 1053.93L495.891 1054.84L497.096 1053.24ZM500.996 1043.14L502.159 1041.52L500.06 1040.02L499.13 1042.42L500.996 1043.14ZM511.696 1048.54L511.073 1050.44L511.083 1050.45L511.696 1048.54ZM535.996 1047.84L537.167 1049.47L537.182 1049.45L537.196 1049.44L535.996 1047.84ZM536.996 1035.44L535.747 1037.01L535.762 1037.02L535.777 1037.03L536.996 1035.44ZM528.296 1032.14L528.707 1030.19L528.705 1030.19L528.296 1032.14ZM517.296 1029.84L516.88 1031.8L516.887 1031.8L517.296 1029.84ZM501.996 999.044L500.369 997.882L501.996 999.044ZM511.696 991.444L510.898 989.61L511.696 991.444ZM539.496 990.944L538.837 992.832L538.85 992.837L538.864 992.842L539.496 990.944ZM549.996 996.944L551.849 997.697L552.369 996.418L551.357 995.479L549.996 996.944ZM546.096 1006.54L544.807 1008.07L546.912 1009.85L547.949 1007.3L546.096 1006.54ZM515.096 1002.44L516.289 1004.05V1004.05L515.096 1002.44ZM513.596 1015.84L512.245 1017.32L512.262 1017.33L512.279 1017.35L513.596 1015.84ZM521.796 1019.14L522.209 1017.19L522.201 1017.19L521.796 1019.14ZM532.696 1021.44L533.111 1019.49L533.109 1019.49L532.696 1021.44ZM547.396 1028.04L546.028 1029.5L546.036 1029.51L546.043 1029.52L547.396 1028.04ZM548.896 1051.14L547.264 1049.99L548.896 1051.14ZM539.196 1058.64L539.97 1060.49L539.977 1060.49L539.984 1060.48L539.196 1058.64ZM524.496 1059.24C519.132 1059.24 514.192 1058.57 509.663 1057.23L508.529 1061.06C513.467 1062.52 518.794 1063.24 524.496 1063.24V1059.24ZM509.688 1057.23C505.131 1055.82 501.349 1053.95 498.301 1051.65L495.891 1054.84C499.377 1057.47 503.595 1059.53 508.504 1061.05L509.688 1057.23ZM498.962 1053.96L502.862 1043.86L499.13 1042.42L495.23 1052.52L498.962 1053.96ZM499.834 1044.77C503.268 1047.22 507.017 1049.12 511.073 1050.44L512.319 1046.64C508.642 1045.44 505.258 1043.73 502.159 1041.52L499.834 1044.77ZM511.083 1050.45C515.236 1051.79 519.711 1052.44 524.496 1052.44V1048.44C520.081 1048.44 516.023 1047.84 512.309 1046.64L511.083 1050.45ZM524.496 1052.44C529.895 1052.44 534.25 1051.57 537.167 1049.47L534.825 1046.22C532.942 1047.58 529.631 1048.44 524.496 1048.44V1052.44ZM537.196 1049.44C540.058 1047.3 541.596 1044.42 541.596 1040.94H537.596C537.596 1043.06 536.734 1044.79 534.796 1046.24L537.196 1049.44ZM541.596 1040.94C541.596 1038.04 540.478 1035.6 538.216 1033.86L535.777 1037.03C536.981 1037.96 537.596 1039.18 537.596 1040.94H541.596ZM538.245 1033.88C536.194 1032.24 532.903 1031.07 528.707 1030.19L527.886 1034.1C531.956 1034.96 534.465 1035.98 535.747 1037.01L538.245 1033.88ZM528.705 1030.19L517.705 1027.89L516.887 1031.8L527.887 1034.1L528.705 1030.19ZM517.712 1027.89C511.675 1026.6 507.392 1024.46 504.629 1021.62C501.909 1018.83 500.496 1015.2 500.496 1010.54H496.496C496.496 1016.09 498.216 1020.77 501.763 1024.41C505.267 1028.01 510.384 1030.42 516.88 1031.8L517.712 1027.89ZM500.496 1010.54C500.496 1006.52 501.556 1003.1 503.624 1000.21L500.369 997.882C497.77 1001.52 496.496 1005.77 496.496 1010.54H500.496ZM503.624 1000.21C505.721 997.27 508.651 994.951 512.495 993.278L510.898 989.61C506.474 991.537 502.937 994.285 500.369 997.882L503.624 1000.21ZM512.495 993.278C516.331 991.607 520.818 990.744 525.996 990.744V986.744C520.375 986.744 515.328 987.681 510.898 989.61L512.495 993.278ZM525.996 990.744C530.589 990.744 534.865 991.445 538.837 992.832L540.155 989.056C535.727 987.51 531.003 986.744 525.996 986.744V990.744ZM538.864 992.842C542.836 994.165 546.075 996.032 548.635 998.41L551.357 995.479C548.317 992.656 544.557 990.523 540.129 989.047L538.864 992.842ZM548.143 996.191L544.243 1005.79L547.949 1007.3L551.849 997.697L548.143 996.191ZM547.385 1005.02C541.456 1000.01 534.253 997.544 525.896 997.544V1001.54C533.406 1001.54 539.67 1003.74 544.807 1008.07L547.385 1005.02ZM525.896 997.544C521.041 997.544 516.966 998.562 513.903 1000.84L516.289 1004.05C518.426 1002.46 521.551 1001.54 525.896 1001.54V997.544ZM513.903 1000.84C510.816 1003.13 509.196 1006.25 509.196 1010.04H513.196C513.196 1007.57 514.177 1005.62 516.289 1004.05L513.903 1000.84ZM509.196 1010.04C509.196 1012.94 510.185 1015.43 512.245 1017.32L514.948 1014.37C513.807 1013.32 513.196 1011.95 513.196 1010.04H509.196ZM512.279 1017.35C514.278 1019.1 517.431 1020.28 521.391 1021.1L522.201 1017.19C518.428 1016.4 516.114 1015.39 514.913 1014.34L512.279 1017.35ZM521.383 1021.1L532.283 1023.4L533.109 1019.49L522.209 1017.19L521.383 1021.1ZM532.281 1023.4C538.701 1024.76 543.201 1026.85 546.028 1029.5L548.764 1026.59C545.191 1023.24 539.891 1020.93 533.111 1019.49L532.281 1023.4ZM546.043 1029.52C548.843 1032.09 550.296 1035.53 550.296 1040.04H554.296C554.296 1034.56 552.483 1030 548.749 1026.57L546.043 1029.52ZM550.296 1040.04C550.296 1043.86 549.274 1047.15 547.264 1049.99L550.528 1052.3C553.052 1048.74 554.296 1044.63 554.296 1040.04H550.296ZM547.264 1049.99C545.244 1052.84 542.326 1055.13 538.408 1056.81L539.984 1060.48C544.466 1058.56 548.015 1055.85 550.528 1052.3L547.264 1049.99ZM538.423 1056.8C534.59 1058.41 529.965 1059.24 524.496 1059.24V1063.24C530.361 1063.24 535.536 1062.35 539.97 1060.49L538.423 1056.8Z" fill="white" mask="url(#path-2-outside-1_353_7693)"/>
<defs>
<linearGradient id="paint0_linear_353_7693" x1="1340.38" y1="864.403" x2="298.005" y2="-837.239" gradientUnits="userSpaceOnUse">
<stop offset="0.1778" stop-opacity="0.82"/>
<stop offset="0.7192" stop-opacity="0"/>
</linearGradient>
<radialGradient id="paint1_radial_353_7693" cx="0" cy="0" r="1" gradientUnits="userSpaceOnUse" gradientTransform="translate(1551.98 -556.518) scale(550.272 333.613)">
<stop stop-color="#F5F5F5" stop-opacity="0.5"/>
<stop offset="1" stop-opacity="0"/>
</radialGradient>
<radialGradient id="paint2_radial_353_7693" cx="0" cy="0" r="1" gradientUnits="userSpaceOnUse" gradientTransform="translate(67.2401 279.144) scale(659.712 399.963)">
<stop stop-opacity="0.6"/>
<stop offset="1" stop-opacity="0"/>
</radialGradient>
<radialGradient id="paint3_radial_353_7693" cx="0" cy="0" r="1" gradientUnits="userSpaceOnUse" gradientTransform="translate(188.584 -563.385) scale(885.12 362.597)">
<stop stop-opacity="0.9"/>
<stop offset="1" stop-opacity="0"/>
</radialGradient>
<radialGradient id="paint4_radial_353_7693" cx="0" cy="0" r="1" gradientUnits="userSpaceOnUse" gradientTransform="translate(1181.99 -611.344) scale(614.784 372.725)">
<stop stop-opacity="0.9"/>
<stop offset="1" stop-opacity="0"/>
</radialGradient>
</defs>
</svg>
