<svg width="14" height="17" viewBox="0 0 14 17" fill="none" xmlns="http://www.w3.org/2000/svg">
<path d="M7 4.23132C6.44374 4.23132 5.89997 4.39627 5.43746 4.70532C4.97495 5.01436 4.61446 5.45361 4.40159 5.96753C4.18872 6.48144 4.13302 7.04694 4.24154 7.59251C4.35006 8.13809 4.61793 8.63923 5.01126 9.03256C5.4046 9.4259 5.90574 9.69376 6.45131 9.80228C6.99688 9.9108 7.56238 9.85511 8.0763 9.64223C8.59021 9.42936 9.02947 9.06888 9.33851 8.60636C9.64755 8.14385 9.8125 7.60008 9.8125 7.04382C9.8125 6.2979 9.51618 5.58253 8.98874 5.05509C8.46129 4.52764 7.74592 4.23132 7 4.23132ZM7 8.73132C6.66624 8.73132 6.33998 8.63235 6.06248 8.44693C5.78497 8.2615 5.56868 7.99795 5.44095 7.6896C5.31323 7.38125 5.27981 7.04195 5.34492 6.71461C5.41004 6.38727 5.57076 6.08658 5.80676 5.85058C6.04276 5.61458 6.34344 5.45386 6.67078 5.38875C6.99813 5.32364 7.33743 5.35705 7.64578 5.48478C7.95413 5.6125 8.21768 5.82879 8.40311 6.1063C8.58853 6.38381 8.6875 6.71007 8.6875 7.04382C8.6875 7.49138 8.50971 7.9206 8.19324 8.23707C7.87678 8.55353 7.44755 8.73132 7 8.73132ZM7 0.856323C5.35954 0.858184 3.78681 1.51068 2.62683 2.67066C1.46685 3.83063 0.814361 5.40337 0.8125 7.04382C0.8125 9.25164 1.83273 11.5916 3.76562 13.8114C4.63414 14.8145 5.61165 15.7177 6.68008 16.5044C6.77466 16.5706 6.88734 16.6062 7.00281 16.6062C7.11829 16.6062 7.23097 16.5706 7.32555 16.5044C8.39201 15.7173 9.36762 14.8141 10.2344 13.8114C12.1645 11.5916 13.1875 9.25164 13.1875 7.04382C13.1856 5.40337 12.5331 3.83063 11.3732 2.67066C10.2132 1.51068 8.64046 0.858184 7 0.856323ZM7 15.3407C5.83773 14.4266 1.9375 11.0692 1.9375 7.04382C1.9375 5.70116 2.47087 4.4135 3.42027 3.4641C4.36967 2.51469 5.65734 1.98132 7 1.98132C8.34266 1.98132 9.63032 2.51469 10.5797 3.4641C11.5291 4.4135 12.0625 5.70116 12.0625 7.04382C12.0625 11.0678 8.16227 14.4266 7 15.3407Z" fill="#fff"/>
</svg>
