<svg width="7" height="7" viewBox="0 0 7 7" fill="none" xmlns="http://www.w3.org/2000/svg">
<path id="Path" fill-rule="evenodd" clip-rule="evenodd" d="M6.16138 0.254117C5.97964 0.0715443 5.68419 0.0715443 5.50245 0.254117L3.19572 2.57139L0.88899 0.254117C0.707247 0.0715443 0.411799 0.0715443 0.230057 0.254117C0.0483144 0.43669 0.0483144 0.733488 0.230057 0.916061L2.53679 3.23333L0.230057 5.5506C0.0483144 5.73318 0.0483144 6.02997 0.230057 6.21255C0.321394 6.3043 0.440692 6.34924 0.559989 6.34924C0.679287 6.34924 0.798584 6.30337 0.889922 6.21255L3.19665 3.89528L5.50338 6.21255C5.59472 6.3043 5.71402 6.34924 5.83332 6.34924C5.95261 6.34924 6.07191 6.30337 6.16325 6.21255C6.34499 6.02997 6.34499 5.73318 6.16325 5.5506L3.85465 3.23333L6.16138 0.916061C6.34313 0.733488 6.34313 0.437626 6.16138 0.254117Z" fill="#303030"/>
</svg>
