<svg width="25" height="25" viewBox="0 0 25 25" fill="none" xmlns="http://www.w3.org/2000/svg">
<g id="tabler:circle-plus">
<path id="Vector" d="M9.92969 12.373H15.9297M12.9297 9.37305V15.373M3.92969 12.373C3.92969 13.5549 4.16248 14.7253 4.61477 15.8172C5.06706 16.9091 5.73 17.9013 6.56573 18.737C7.40145 19.5727 8.39361 20.2357 9.48554 20.688C10.5775 21.1403 11.7478 21.373 12.9297 21.373C14.1116 21.373 15.2819 21.1403 16.3738 20.688C17.4658 20.2357 18.4579 19.5727 19.2936 18.737C20.1294 17.9013 20.7923 16.9091 21.2446 15.8172C21.6969 14.7253 21.9297 13.5549 21.9297 12.373C21.9297 11.1912 21.6969 10.0208 21.2446 8.9289C20.7923 7.83697 20.1294 6.84481 19.2936 6.00909C18.4579 5.17336 17.4658 4.51042 16.3738 4.05813C15.2819 3.60584 14.1116 3.37305 12.9297 3.37305C11.7478 3.37305 10.5775 3.60584 9.48554 4.05813C8.39361 4.51042 7.40145 5.17336 6.56573 6.00909C5.73 6.84481 5.06706 7.83697 4.61477 8.9289C4.16248 10.0208 3.92969 11.1912 3.92969 12.373Z" stroke="#415CE0" stroke-width="2" stroke-linecap="round" stroke-linejoin="round"/>
</g>
</svg>
