<svg width="19" height="19" viewBox="0 0 19 19" fill="none" xmlns="http://www.w3.org/2000/svg">
<path d="M12.5413 8.60632H15.9163C16.2146 8.60632 16.5008 8.4878 16.7118 8.27682C16.9227 8.06584 17.0413 7.77969 17.0413 7.48132V4.10632C17.0413 3.80795 16.9227 3.52181 16.7118 3.31083C16.5008 3.09985 16.2146 2.98132 15.9163 2.98132H12.5413C12.2429 2.98132 11.9567 3.09985 11.7458 3.31083C11.5348 3.52181 11.4163 3.80795 11.4163 4.10632V5.23132H10.8538C10.257 5.23132 9.68473 5.46838 9.26277 5.89033C8.84081 6.31229 8.60376 6.88459 8.60376 7.48132V9.16882H6.35376V8.60632C6.35376 8.30795 6.23523 8.02181 6.02425 7.81083C5.81328 7.59985 5.52713 7.48132 5.22876 7.48132H2.97876C2.68039 7.48132 2.39424 7.59985 2.18326 7.81083C1.97229 8.02181 1.85376 8.30795 1.85376 8.60632V10.8563C1.85376 11.1547 1.97229 11.4408 2.18326 11.6518C2.39424 11.8628 2.68039 11.9813 2.97876 11.9813H5.22876C5.52713 11.9813 5.81328 11.8628 6.02425 11.6518C6.23523 11.4408 6.35376 11.1547 6.35376 10.8563V10.2938H8.60376V11.9813C8.60376 12.5781 8.84081 13.1504 9.26277 13.5723C9.68473 13.9943 10.257 14.2313 10.8538 14.2313H11.4163V15.3563C11.4163 15.6547 11.5348 15.9408 11.7458 16.1518C11.9567 16.3628 12.2429 16.4813 12.5413 16.4813H15.9163C16.2146 16.4813 16.5008 16.3628 16.7118 16.1518C16.9227 15.9408 17.0413 15.6547 17.0413 15.3563V11.9813C17.0413 11.683 16.9227 11.3968 16.7118 11.1858C16.5008 10.9748 16.2146 10.8563 15.9163 10.8563H12.5413C12.2429 10.8563 11.9567 10.9748 11.7458 11.1858C11.5348 11.3968 11.4163 11.683 11.4163 11.9813V13.1063H10.8538C10.5554 13.1063 10.2692 12.9878 10.0583 12.7768C9.84729 12.5658 9.72876 12.2797 9.72876 11.9813V7.48132C9.72876 7.18295 9.84729 6.89681 10.0583 6.68583C10.2692 6.47485 10.5554 6.35632 10.8538 6.35632H11.4163V7.48132C11.4163 7.77969 11.5348 8.06584 11.7458 8.27682C11.9567 8.4878 12.2429 8.60632 12.5413 8.60632ZM5.22876 10.8563H2.97876V8.60632H5.22876V10.8563ZM12.5413 11.9813H15.9163V15.3563H12.5413V11.9813ZM12.5413 4.10632H15.9163V7.48132H12.5413V4.10632Z" fill="#fff"/>
</svg>
