<svg width="19" height="19" viewBox="0 0 19 19" fill="none" xmlns="http://www.w3.org/2000/svg">
<path d="M2.10513 9.61887C2.16422 9.66319 2.23147 9.69544 2.30303 9.71377C2.37458 9.7321 2.44905 9.73616 2.52218 9.72571C2.5953 9.71527 2.66566 9.69052 2.72922 9.65288C2.79278 9.61525 2.84831 9.56546 2.89263 9.50637C3.2332 9.05228 3.67481 8.68371 4.1825 8.42987C4.69019 8.17602 5.25001 8.04387 5.81763 8.04387C6.38524 8.04387 6.94506 8.17602 7.45275 8.42987C7.96044 8.68371 8.40206 9.05228 8.74263 9.50637C8.83224 9.62561 8.96555 9.70437 9.11323 9.72533C9.26091 9.7463 9.41087 9.70775 9.53013 9.61816C9.57264 9.58655 9.61031 9.54888 9.64192 9.50637C9.98249 9.05228 10.4241 8.68371 10.9318 8.42987C11.4395 8.17602 11.9993 8.04387 12.5669 8.04387C13.1345 8.04387 13.6944 8.17602 14.202 8.42987C14.7097 8.68371 15.1514 9.05228 15.4919 9.50637C15.5815 9.62571 15.7149 9.70458 15.8626 9.72561C16.0104 9.74664 16.1604 9.70812 16.2798 9.61852C16.3991 9.52891 16.478 9.39557 16.499 9.24782C16.5201 9.10007 16.4815 8.95001 16.3919 8.83066C15.894 8.16316 15.2301 7.63762 14.4661 7.30629C14.8849 6.92389 15.1784 6.42379 15.3079 5.87163C15.4374 5.31947 15.397 4.74105 15.1919 4.21227C14.9869 3.6835 14.6267 3.22907 14.1587 2.90864C13.6908 2.58821 13.1369 2.41675 12.5697 2.41675C12.0026 2.41675 11.4487 2.58821 10.9807 2.90864C10.5128 3.22907 10.1526 3.6835 9.94754 4.21227C9.74246 4.74105 9.70204 5.31947 9.83158 5.87163C9.96112 6.42379 10.2546 6.92389 10.6734 7.30629C10.1218 7.54482 9.62064 7.88631 9.19685 8.31246C8.77305 7.88631 8.27193 7.54482 7.72028 7.30629C8.13913 6.92389 8.43257 6.42379 8.56211 5.87163C8.69165 5.31947 8.65123 4.74105 8.44615 4.21227C8.24108 3.6835 7.88092 3.22907 7.41297 2.90864C6.94501 2.58821 6.39111 2.41675 5.82396 2.41675C5.2568 2.41675 4.7029 2.58821 4.23494 2.90864C3.76699 3.22907 3.40684 3.6835 3.20176 4.21227C2.99668 4.74105 2.95626 5.31947 3.0858 5.87163C3.21534 6.42379 3.50878 6.92389 3.92763 7.30629C3.16027 7.63654 2.49304 8.16242 1.99263 8.83137C1.94831 8.89046 1.91606 8.95771 1.89773 9.02926C1.87939 9.10082 1.87533 9.17529 1.88578 9.24842C1.89623 9.32154 1.92097 9.3919 1.95861 9.45546C1.99625 9.51902 2.04603 9.57455 2.10513 9.61887ZM12.5676 3.54387C12.9014 3.54387 13.2276 3.64284 13.5052 3.82826C13.7827 4.01369 13.999 4.27724 14.1267 4.58559C14.2544 4.89394 14.2878 5.23324 14.2227 5.56058C14.1576 5.88792 13.9969 6.18861 13.7609 6.42461C13.5249 6.66061 13.2242 6.82133 12.8968 6.88644C12.5695 6.95155 12.2302 6.91814 11.9218 6.79041C11.6135 6.66269 11.3499 6.4464 11.1645 6.16889C10.9791 5.89138 10.8801 5.56512 10.8801 5.23137C10.8801 4.78381 11.0579 4.35459 11.3744 4.03812C11.6909 3.72166 12.1201 3.54387 12.5676 3.54387ZM5.81763 3.54387C6.15138 3.54387 6.47764 3.64284 6.75515 3.82826C7.03266 4.01369 7.24895 4.27724 7.37667 4.58559C7.5044 4.89394 7.53782 5.23324 7.4727 5.56058C7.40759 5.88792 7.24687 6.18861 7.01087 6.42461C6.77487 6.66061 6.47419 6.82133 6.14684 6.88644C5.8195 6.95155 5.4802 6.91814 5.17185 6.79041C4.8635 6.66269 4.59995 6.4464 4.41452 6.16889C4.2291 5.89138 4.13013 5.56512 4.13013 5.23137C4.13013 4.78381 4.30792 4.35459 4.62438 4.03812C4.94085 3.72166 5.37007 3.54387 5.81763 3.54387ZM14.4661 14.6188C14.8849 14.2364 15.1784 13.7363 15.3079 13.1841C15.4374 12.632 15.397 12.0535 15.1919 11.5248C14.9869 10.996 14.6267 10.5416 14.1587 10.2211C13.6908 9.90071 13.1369 9.72925 12.5697 9.72925C12.0026 9.72925 11.4487 9.90071 10.9807 10.2211C10.5128 10.5416 10.1526 10.996 9.94754 11.5248C9.74246 12.0535 9.70204 12.632 9.83158 13.1841C9.96112 13.7363 10.2546 14.2364 10.6734 14.6188C10.1218 14.8573 9.62064 15.1988 9.19685 15.625C8.77305 15.1988 8.27193 14.8573 7.72028 14.6188C8.13913 14.2364 8.43257 13.7363 8.56211 13.1841C8.69165 12.632 8.65123 12.0535 8.44615 11.5248C8.24108 10.996 7.88092 10.5416 7.41297 10.2211C6.94501 9.90071 6.39111 9.72925 5.82396 9.72925C5.2568 9.72925 4.7029 9.90071 4.23494 10.2211C3.76699 10.5416 3.40684 10.996 3.20176 11.5248C2.99668 12.0535 2.95626 12.632 3.0858 13.1841C3.21534 13.7363 3.50878 14.2364 3.92763 14.6188C3.16027 14.949 2.49304 15.4749 1.99263 16.1439C1.94831 16.203 1.91606 16.2702 1.89773 16.3418C1.87939 16.4133 1.87533 16.4878 1.88578 16.5609C1.89623 16.634 1.92097 16.7044 1.95861 16.768C1.99625 16.8315 2.04603 16.887 2.10513 16.9314C2.16422 16.9757 2.23147 17.0079 2.30303 17.0263C2.37458 17.0446 2.44905 17.0487 2.52218 17.0382C2.5953 17.0278 2.66566 17.003 2.72922 16.9654C2.79278 16.9277 2.84831 16.878 2.89263 16.8189C3.2332 16.3648 3.67481 15.9962 4.1825 15.7424C4.69019 15.4885 5.25001 15.3564 5.81763 15.3564C6.38524 15.3564 6.94506 15.4885 7.45275 15.7424C7.96044 15.9962 8.40206 16.3648 8.74263 16.8189C8.83224 16.9381 8.96555 17.0169 9.11323 17.0378C9.26091 17.0588 9.41087 17.0202 9.53013 16.9307C9.57264 16.899 9.61031 16.8614 9.64192 16.8189C9.98249 16.3648 10.4241 15.9962 10.9318 15.7424C11.4395 15.4885 11.9993 15.3564 12.5669 15.3564C13.1345 15.3564 13.6944 15.4885 14.202 15.7424C14.7097 15.9962 15.1514 16.3648 15.4919 16.8189C15.5815 16.9382 15.7149 17.0171 15.8626 17.0381C16.0104 17.0591 16.1604 17.0206 16.2798 16.931C16.3991 16.8414 16.478 16.7081 16.499 16.5603C16.5201 16.4126 16.4815 16.2625 16.3919 16.1432C15.894 15.4757 15.2301 14.9501 14.4661 14.6188ZM5.81763 10.8564C6.15138 10.8564 6.47764 10.9553 6.75515 11.1408C7.03266 11.3262 7.24895 11.5897 7.37667 11.8981C7.5044 12.2064 7.53782 12.5457 7.4727 12.8731C7.40759 13.2004 7.24687 13.5011 7.01087 13.7371C6.77487 13.9731 6.47419 14.1338 6.14684 14.1989C5.8195 14.2641 5.4802 14.2306 5.17185 14.1029C4.8635 13.9752 4.59995 13.7589 4.41452 13.4814C4.2291 13.2039 4.13013 12.8776 4.13013 12.5439C4.13013 12.0963 4.30792 11.6671 4.62438 11.3506C4.94085 11.0342 5.37007 10.8564 5.81763 10.8564ZM12.5676 10.8564C12.9014 10.8564 13.2276 10.9553 13.5052 11.1408C13.7827 11.3262 13.999 11.5897 14.1267 11.8981C14.2544 12.2064 14.2878 12.5457 14.2227 12.8731C14.1576 13.2004 13.9969 13.5011 13.7609 13.7371C13.5249 13.9731 13.2242 14.1338 12.8968 14.1989C12.5695 14.2641 12.2302 14.2306 11.9218 14.1029C11.6135 13.9752 11.3499 13.7589 11.1645 13.4814C10.9791 13.2039 10.8801 12.8776 10.8801 12.5439C10.8801 12.0963 11.0579 11.6671 11.3744 11.3506C11.6909 11.0342 12.1201 10.8564 12.5676 10.8564Z" fill="#fff"/>
</svg>
