<svg width="57" height="57" viewBox="0 0 57 57" fill="none" xmlns="http://www.w3.org/2000/svg">
<g clip-path="url(#clip0_259_2471)">
<path d="M55.9988 11.9388L47.9986 3.93863C47.7173 3.65772 47.3361 3.49994 46.9386 3.49994C46.5411 3.49994 46.1598 3.65772 45.8785 3.93863L21.8779 27.9393C21.5965 28.2203 21.4382 28.6016 21.4379 28.9993V36.9995C21.4379 37.3974 21.5959 37.7789 21.8772 38.0602C22.1585 38.3415 22.5401 38.4996 22.9379 38.4996H30.9381C31.3358 38.4992 31.7171 38.3409 31.9982 38.0596L55.9988 14.0589C56.2797 13.7776 56.4375 13.3964 56.4375 12.9989C56.4375 12.6014 56.2797 12.2201 55.9988 11.9388ZM30.3156 35.4995H24.438V29.6218L40.9384 13.1214L46.8161 18.999L30.3156 35.4995ZM48.9386 16.8765L43.061 10.9988L46.9386 7.12122L52.8162 12.9989L48.9386 16.8765ZM54.4388 26.9993V48.9998C54.4388 49.9281 54.07 50.8184 53.4136 51.4748C52.7572 52.1312 51.867 52.4999 50.9387 52.4999H10.9376C10.0093 52.4999 9.11905 52.1312 8.46265 51.4748C7.80626 50.8184 7.4375 49.9281 7.4375 48.9998V8.99877C7.4375 8.07048 7.80626 7.18022 8.46265 6.52383C9.11905 5.86743 10.0093 5.49867 10.9376 5.49867H32.9382C33.336 5.49867 33.7176 5.65671 33.9989 5.93802C34.2802 6.21934 34.4382 6.60088 34.4382 6.99871C34.4382 7.39655 34.2802 7.77809 33.9989 8.0594C33.7176 8.34071 33.336 8.49875 32.9382 8.49875H10.9376C10.805 8.49875 10.6778 8.55143 10.584 8.6452C10.4903 8.73897 10.4376 8.86616 10.4376 8.99877V48.9998C10.4376 49.1325 10.4903 49.2596 10.584 49.3534C10.6778 49.4472 10.805 49.4999 10.9376 49.4999H50.9387C51.0713 49.4999 51.1985 49.4472 51.2922 49.3534C51.386 49.2596 51.4387 49.1325 51.4387 48.9998V26.9993C51.4387 26.6014 51.5967 26.2199 51.878 25.9386C52.1593 25.6573 52.5409 25.4992 52.9387 25.4992C53.3366 25.4992 53.7181 25.6573 53.9994 25.9386C54.2807 26.2199 54.4388 26.6014 54.4388 26.9993Z" fill="white"/>
</g>
<defs>
<clipPath id="clip0_259_2471">
<rect width="56" height="56" fill="white" transform="translate(0.4375 0.499939)"/>
</clipPath>
</defs>
</svg>
